<svg xmlns="http://www.w3.org/2000/svg" width="1200" height="420" viewBox="0 0 1200 420" role="img" aria-labelledby="title desc">
  <title id="title">INAV PID Tuner</title>
  <desc id="desc">A technical banner for a Blackbox log analysis web tool that produces PID and filter tuning suggestions.</desc>
  <rect width="1200" height="420" fill="#f8fafc"/>
  <g transform="translate(72 62)">
    <text x="0" y="0" font-family="Inter,Segoe UI,Arial,sans-serif" font-size="48" font-weight="800" fill="#111827">INAV PID Tuner</text>
    <text x="0" y="48" font-family="Inter,Segoe UI,Arial,sans-serif" font-size="22" fill="#374151">Blackbox log analysis for PID and filter recommendations</text>
    <g transform="translate(0 88)" font-family="Inter,Segoe UI,Arial,sans-serif" font-size="16" font-weight="700">
      <rect x="0" y="0" width="136" height="36" rx="8" fill="#2563eb"/>
      <text x="18" y="24" fill="#ffffff">FastAPI</text>
      <rect x="152" y="0" width="148" height="36" rx="8" fill="#0f766e"/>
      <text x="170" y="24" fill="#ffffff">Blackbox</text>
      <rect x="316" y="0" width="170" height="36" rx="8" fill="#ea580c"/>
      <text x="334" y="24" fill="#ffffff">PID tuning</text>
    </g>
    <text x="0" y="184" font-family="Inter,Segoe UI,Arial,sans-serif" font-size="18" fill="#4b5563">Upload log, review metrics, copy cautious CLI suggestions</text>
  </g>
  <g transform="translate(660 56)">
    <rect x="0" y="0" width="430" height="274" rx="8" fill="#111827"/>
    <rect x="22" y="24" width="386" height="226" rx="8" fill="#f9fafb"/>
    <g transform="translate(52 58)">
      <line x1="0" y1="146" x2="304" y2="146" stroke="#9ca3af" stroke-width="2"/>
      <line x1="0" y1="0" x2="0" y2="146" stroke="#9ca3af" stroke-width="2"/>
      <polyline points="0,102 28,98 56,112 84,74 112,84 140,52 168,62 196,38 224,48 252,28 280,34 304,24" fill="none" stroke="#2563eb" stroke-width="5"/>
      <polyline points="0,128 28,126 56,130 84,116 112,118 140,94 168,96 196,82 224,78 252,64 280,58 304,54" fill="none" stroke="#ea580c" stroke-width="5"/>
      <text x="0" y="180" font-family="Inter,Segoe UI,Arial,sans-serif" font-size="14" fill="#374151">gyro noise</text>
      <text x="194" y="180" font-family="Inter,Segoe UI,Arial,sans-serif" font-size="14" fill="#374151">D-term</text>
    </g>
  </g>
</svg>
